<svg width="285" height="351" viewBox="0 0 285 351" fill="none" xmlns="http://www.w3.org/2000/svg">
<g filter="url(#filter0_d)">
<path d="M55.3241 61.3059C52.4775 63.4414 47.4961 79.1021 51.4101 85.1529C55.3241 91.2036 68.4894 117.186 75.9616 119.322C81.9394 121.03 85.5688 115.762 86.6362 112.915C87.4665 116.474 89.1982 124.376 89.4828 127.508C89.8386 131.423 106.206 135.338 110.12 141.033C113.252 145.589 112.137 132.491 111.188 125.372L112.611 127.508C113.679 132.61 117.237 141.531 117.237 144.948C117.237 148.365 124.59 156.813 128.267 160.609C133.842 159.541 146.414 158.046 152.107 160.609C159.224 163.812 165.628 154.641 168.475 151.794C170.752 149.516 169.898 143.999 170.966 144.948L169.542 125.017C171.44 129.05 175.307 137.901 175.591 141.033C175.947 144.948 192.315 127.508 196.229 127.508C199.36 127.508 197.534 117.779 196.229 112.915C197.059 114.22 199.645 117.329 203.345 119.322C207.971 121.813 227.185 97.9662 230.743 91.5595C233.59 86.4342 234.302 72.8141 234.302 66.6447C228.846 55.967 217.578 32.6894 216.155 25.0015C214.731 17.3135 217.222 19.8999 218.646 22.1541C222.915 32.2386 232.024 52.906 234.302 54.8992C236.579 56.8924 237.86 55.7297 238.216 54.8992C239.164 51.8145 239.71 44.0791 234.302 37.8148C227.541 29.9844 218.646 10.0526 218.646 8.62888C218.646 7.48992 221.729 8.15431 223.271 8.62888C228.134 16.9338 238.571 33.9708 241.418 35.6792C244.976 37.8148 246.399 40.6622 249.246 27.4929C252.093 14.3237 254.939 17.527 254.228 25.0015C253.516 32.4759 253.516 49.2044 249.246 52.0518C244.976 54.8992 241.418 63.7973 241.418 74.4751C241.418 85.1529 239.639 88.7121 249.246 85.1529C258.853 81.5936 270.951 65.577 270.595 54.8992C270.239 44.2214 273.798 66.2888 270.595 74.4751C268.033 81.0241 273.798 82.6614 277 82.6614L274.509 85.1529C262.293 89.6613 237.148 100.102 234.302 105.797C231.455 111.491 225.762 117.186 223.271 119.322C218.883 122.169 212.852 131.779 225.762 131.779C228.964 131.779 234.302 133.084 230.743 131.779L244.976 125.017L241.418 131.779L230.743 137.83C222.56 136.999 204.911 135.267 202.634 134.982C199.787 134.627 179.717 147.949 174.88 160.609C174.168 162.472 175.591 162.116 178.438 160.609C183.775 154.084 197.581 141.033 210.106 141.033H212.597C214.02 149.101 211.6 170.587 203.345 175.997C196.822 179.793 192.884 182.831 189.468 184.539L178.438 189.083C179.387 193.829 177.157 208.244 174.88 216.216C172.033 226.182 180.573 227.25 182.708 231.877C184.843 236.504 189.824 238.557 189.468 241.404C189.112 244.252 187.333 247.455 189.468 252.794C191.176 257.065 190.18 259.556 189.468 260.268C188.282 260.387 186.622 261.977 189.468 267.387C193.026 274.149 193.382 275.217 193.026 278.776C192.742 281.624 190.536 279.963 189.468 278.776C190.536 281.624 192.03 288.173 189.468 291.59C186.906 295.007 183.894 294.674 182.708 294.081C181.284 296.81 178.438 303.193 178.438 306.894C178.438 310.596 173.931 310.098 171.677 309.386C169.661 312.233 165.628 318.569 165.628 321.131C165.628 323.694 161.358 322.199 159.224 321.131C156.614 327.657 150.684 341.134 147.837 342.843C144.279 344.978 131.825 324.691 128.267 321.131L120.439 313.301L117.237 317.572C113.56 313.538 106.135 303.62 105.851 296.217C105.566 288.813 102.648 291.708 101.225 294.081V278.776C101.225 269.665 97.1922 269.76 95.1759 270.946C94.8201 268.929 94.8201 262.973 97.6667 255.285C100.228 248.368 97.8117 244.77 96.2564 244.093C95.5766 244.715 95.1759 244.931 95.1759 244.607C95.1759 244.009 95.6509 243.83 96.2564 244.093C100.061 240.614 112.611 224.429 112.611 219.064C112.611 215.773 105.181 195.899 107.985 187.386C104.902 185.132 95.1759 181.751 89.4828 179.473C82.3664 176.626 65.287 162.745 70.6243 141.033C79.6385 142.457 99.3034 147.725 105.851 157.406L111.188 160.609C110.239 153.965 104.57 140.108 89.4828 137.83C87.4665 135.932 80.872 132.705 70.6243 134.982C57.8148 137.83 47.8519 139.254 39.668 127.508V122.169C43.9378 127.983 55.4664 137.189 67.422 127.508C64.3382 120.152 56.1069 104.444 47.8519 100.458C37.5331 95.4747 26.5026 87.2884 20.4537 89.424C15.6146 91.1324 10.1349 87.2884 8 85.1529L15.4722 82.6614C12.3884 75.7802 7.14603 60.594 10.8466 54.8992C14.5471 49.2044 15.4722 56.7975 15.4722 61.3059C17.4885 71.6277 25.1505 90.8477 39.668 85.1529C41.5657 83.8478 44.7918 78.3191 42.5146 66.6447C39.668 52.0518 26.1468 41.374 30.7725 25.0015C35.3981 8.62888 28.2817 35.6792 36.1098 37.8148C43.9378 39.9503 56.0357 11.1204 61.7288 8.62888C67.422 6.13739 40.3796 42.7977 47.8519 52.0518C55.3241 61.3059 58.8822 27.8489 64.2196 25.0015C68.4894 22.7235 68.1336 26.6991 67.422 28.9716C63.2814 41.9848 57.2339 59.8731 55.3241 61.3059Z" fill="#070606" fill-opacity="0.6"/>
</g>
<defs>
<filter id="filter0_d" x="0" y="0" width="285" height="351" filterUnits="userSpaceOnUse" color-interpolation-filters="sRGB">
<feFlood flood-opacity="0" result="BackgroundImageFix"/>
<feColorMatrix in="SourceAlpha" type="matrix" values="0 0 0 0 0 0 0 0 0 0 0 0 0 0 0 0 0 0 127 0"/>
<feOffset/>
<feGaussianBlur stdDeviation="4"/>
<feColorMatrix type="matrix" values="0 0 0 0 0.25098 0 0 0 0 0.733333 0 0 0 0 0.647059 0 0 0 0.25 0"/>
<feBlend mode="normal" in2="BackgroundImageFix" result="effect1_dropShadow"/>
<feBlend mode="normal" in="SourceGraphic" in2="effect1_dropShadow" result="shape"/>
</filter>
</defs>
</svg>
